<?xml version="1.0" encoding="UTF-8"?> <svg xmlns="http://www.w3.org/2000/svg" width="15" height="15" viewBox="0 0 30 31" fill="none"> <g clip-path="url(#clip0)"> <path d="M29.3786 14.7868L1.52214 1.94065C1.07858 1.7394 0.549307 1.85929 0.240743 2.2404C-0.069964 2.6215 -0.080678 3.16318 0.215029 3.55499L9.37552 15.7589L0.215029 27.9627C-0.080678 28.3545 -0.069964 28.8983 0.2386 29.2773C0.446452 29.5364 0.757159 29.6755 1.07215 29.6755C1.22429 29.6755 1.37643 29.6434 1.52 29.5771L29.3765 16.7309C29.7579 16.5553 30 16.1764 30 15.7589C30 15.3414 29.7579 14.9624 29.3786 14.7868Z" fill="url(#paint0_linear)"></path> </g> <defs> <linearGradient id="paint0_linear" x1="15" y1="1.84413" x2="15" y2="29.6755" gradientUnits="userSpaceOnUse"> <stop stop-color="#FF3E33"></stop> <stop offset="1" stop-color="#E9945E"></stop> </linearGradient> <clipPath id="clip0"> <rect y="0.771362" width="30" height="29.9751" fill="white"></rect> </clipPath> </defs> </svg> 